# xmcd CD database file
#
# Track frame offsets:
#	150
#	11417
#	18397
#	26315
#	38715
#	57142
#	67805
#	79625
#	95227
#	101555
#	115672
#	123405
#	126480
#	130380
#	142907
#	156485
#	162427
#	176565
#	187922
#	208850
#	223575
#	230280
#	240335
#	248560
#	262032
#	288080
#	300075
#	311732
#
# Disc length: 4408 seconds
#
# Revision: 4
# Processed by: cddbd v1.5.2PL0 Copyright (c) Steve Scherf et al.
# Submitted via: CDex 1.51
#
DISCID=7611361c
DTITLE=Rachmaninoff - Piano Sonata N°1, Preludes Op.32 (Santiago Rodriguez, piano)
DYEAR=2008
DGENRE=Classique
TTITLE0=Piano Sonata N°1 in D minor, Op. 28 - Movement 1 - I. Allegro moderato
TTITLE1=Piano Sonata N°1 in D minor, Op. 28 - Movement 1 - II. Moderato - Measure 73
TTITLE2=Piano Sonata N°1 in D minor, Op. 28 - Movement 1 - III. Tempo I - Measure 117
TTITLE3=Piano Sonata N°1 in D minor, Op. 28 - Movement 1 - IV. Tempo I - Measure 172
TTITLE4=Piano Sonata N°1 in D minor, Op. 28 - Movement 1 - V. A tempo
TTITLE5=Piano Sonata N°1 in D minor, Op. 28 - Movement 2 - I. Lento
TTITLE6=Piano Sonata N°1 in D minor, Op. 28 - Movement 2 - II. Measure 43
TTITLE7=Piano Sonata N°1 in D minor, Op. 28 - Movement 2 - III. Measure 102
TTITLE8=Piano Sonata N°1 in D minor, Op. 28 - Movement 3 - I. Allegro molto
TTITLE9=Piano Sonata N°1 in D minor, Op. 28 - Movement 3 - II. Meno mosso - Measure 80
TTITLE10=Piano Sonata N°1 in D minor, Op. 28 - Movement 3 - III. Moderato - Measure 188
TTITLE11=Piano Sonata N°1 in D minor, Op. 28 - Movement 3 - IV. Più vivo - Measure 240
TTITLE12=Piano Sonata N°1 in D minor, Op. 28 - Movement 3 - V. Tempo I - Measure 267
TTITLE13=Piano Sonata N°1 in D minor, Op. 28 - Movement 3 - VI. Meno mosso - Measure 313
TTITLE14=Piano Sonata N°1 in D minor, Op. 28 - Movement 3 - VII. Moderato - Measure 409
TTITLE15=Prelude Op.32  N°01 in C  major - Allegro vivace
TTITLE16=Prelude Op.32  N°02 in B flat minor - Allegretto
TTITLE17=Prelude Op.32  N°03 in E major - Allegro vivace
TTITLE18=Prelude Op.32  N°04 in E minor - Allegro con brio
TTITLE19=Prelude Op.32  N°05 in G major - Moderato
TTITLE20=Prelude Op.32  N°06 in F minor - Allegro appassionato
TTITLE21=Prelude Op.32  N°07 in F major - Moderato
TTITLE22=Prelude Op.32  N°08 in A minor - Vivo
TTITLE23=Prelude Op.32  N°09 in A major - Allegro moderato
TTITLE24=Prelude Op.32  N°10 in B minor - Lento
TTITLE25=Prelude Op.32  N°11 in B major - Allegretto
TTITLE26=Prelude Op.32  N°12 in G sharp minor - Allegro
TTITLE27=Prelude Op.32  N°13 in D flat major - Grave
EXTD=YEAR: 2008
EXTT0=
EXTT1=
EXTT2=
EXTT3=
EXTT4=
EXTT5=
EXTT6=
EXTT7=
EXTT8=
EXTT9=
EXTT10=
EXTT11=
EXTT12=
EXTT13=
EXTT14=
EXTT15=
EXTT16=
EXTT17=
EXTT18=
EXTT19=
EXTT20=
EXTT21=
EXTT22=
EXTT23=
EXTT24=
EXTT25=
EXTT26=
EXTT27=
PLAYORDER=
